<?xml version="1.0" encoding="UTF-8"?>
<svg id="Lager_1" data-name="Lager 1" xmlns="http://www.w3.org/2000/svg" version="1.1" viewBox="0 0 183.7 42.08">
  <defs>
    <style>
      .cls-1 {
        fill: #8300ff;
      }

      .cls-1, .cls-2 {
        stroke-width: 0px;
      }

      .cls-2 {
        fill: #22003d;
      }
    </style>
  </defs>
  <g>
    <path class="cls-2" d="M76.99,20.6v-12.13h-4.29v-2.24h11.05v2.24h-4.29v12.13h-2.46Z"/>
    <path class="cls-2" d="M84.26,20.6l-1.58-10.14h2.34l1.09,8.56h.35l1.54-8.56h3.78l1.54,8.56h.35l1.09-8.56h2.34l-1.58,10.14h-3.92l-1.52-8.56h-.35l-1.54,8.56h-3.92Z"/>
    <path class="cls-2" d="M99.62,9.16c-.42,0-.79-.14-1.1-.42-.31-.28-.46-.65-.46-1.12s.15-.84.46-1.12.67-.42,1.1-.42c.45,0,.82.14,1.12.42.29.28.44.65.44,1.12s-.15.84-.44,1.12c-.29.28-.67.42-1.12.42ZM98.45,20.6v-10.14h2.36v10.14h-2.36Z"/>
    <path class="cls-2" d="M102.78,20.6v-10.14h2.32v1.42h.35c.18-.38.5-.75.97-1.09.46-.34,1.17-.51,2.11-.51.78,0,1.47.18,2.07.53s1.07.85,1.41,1.48c.33.63.5,1.38.5,2.24v6.08h-2.36v-5.89c0-.82-.2-1.43-.61-1.84s-.97-.61-1.71-.61c-.84,0-1.49.28-1.97.83-.48.56-.72,1.34-.72,2.37v5.13h-2.36Z"/>
    <path class="cls-2" d="M119.02,20.88c-1.01,0-1.91-.22-2.68-.65-.77-.43-1.38-1.04-1.81-1.83-.43-.79-.65-1.71-.65-2.76v-.25c0-1.07.21-1.99.64-2.77.42-.78,1.02-1.39,1.79-1.82.77-.43,1.65-.65,2.65-.65s1.85.22,2.59.65c.74.43,1.31,1.04,1.73,1.82.41.78.62,1.69.62,2.73v.84h-7.62c.03.79.31,1.43.84,1.91.53.48,1.19.72,1.97.72s1.33-.17,1.7-.5.65-.72.84-1.14l1.95,1.01c-.19.37-.47.76-.83,1.18-.36.42-.85.77-1.45,1.07-.6.29-1.36.44-2.28.44ZM116.29,14.42h5.19c-.06-.67-.31-1.2-.77-1.6-.46-.4-1.05-.6-1.78-.6s-1.35.2-1.81.6c-.45.4-.73.93-.84,1.6Z"/>
  </g>
  <g>
    <path class="cls-2" d="M77,37.98v-14.35h1.72v14.35h-1.72Z"/>
    <path class="cls-2" d="M81.03,37.98v-10.02h1.58v1.7h.29c.22-.48.59-.91,1.12-1.3.53-.39,1.3-.58,2.33-.58.75,0,1.42.16,2.02.47s1.07.78,1.42,1.39.53,1.37.53,2.28v6.07h-1.62v-5.95c0-1-.25-1.72-.75-2.17s-1.17-.68-2.02-.68c-.97,0-1.76.32-2.37.94-.61.63-.91,1.57-.91,2.81v5.04h-1.62Z"/>
    <path class="cls-2" d="M95.98,37.98c-.57,0-1.01-.16-1.32-.47s-.46-.74-.46-1.29v-6.85h-3.01v-1.41h3.01v-3.57h1.62v3.57h3.28v1.41h-3.28v6.6c0,.41.2.62.59.62h2.23v1.39h-2.67Z"/>
    <path class="cls-2" d="M104.92,38.27c-1.01,0-1.9-.22-2.67-.65-.77-.43-1.36-1.04-1.78-1.81s-.63-1.68-.63-2.71v-.25c0-1.04.21-1.95.63-2.73s1.01-1.38,1.76-1.81c.75-.43,1.61-.65,2.58-.65s1.78.2,2.5.6c.72.4,1.29.98,1.7,1.73.41.75.62,1.63.62,2.64v.74h-8.18c.04,1.08.39,1.92,1.04,2.53.66.61,1.48.91,2.46.91.86,0,1.52-.2,1.99-.59.46-.4.82-.87,1.07-1.42l1.39.68c-.21.42-.49.85-.85,1.27-.36.42-.83.78-1.42,1.07s-1.32.43-2.22.43ZM101.47,32.06h6.52c-.05-.93-.37-1.65-.95-2.17s-1.32-.78-2.22-.78-1.67.26-2.26.78c-.59.52-.95,1.24-1.09,2.17Z"/>
    <path class="cls-2" d="M110.94,33.02v-.29c0-1.05.21-1.95.63-2.71.42-.75,1-1.33,1.72-1.74.72-.41,1.52-.62,2.38-.62,1.05,0,1.86.2,2.43.6.57.4.99.85,1.26,1.34h.29v-1.66h1.54v12.36c0,.55-.15.98-.45,1.29-.3.31-.74.47-1.31.47h-6.81v-1.43h6.38c.41,0,.62-.21.62-.62v-3.81h-.29c-.16.3-.4.59-.7.88-.3.29-.69.52-1.17.71-.48.18-1.07.28-1.78.28-.86,0-1.65-.21-2.38-.62-.72-.41-1.3-.99-1.72-1.75-.42-.76-.63-1.66-.63-2.7ZM116.11,36.65c1.04,0,1.88-.33,2.53-.98s.97-1.56.97-2.71v-.16c0-1.16-.32-2.07-.97-2.72-.65-.65-1.49-.97-2.53-.97s-1.87.33-2.53.97c-.66.65-.99,1.55-.99,2.72v.16c0,1.15.33,2.05.99,2.71s1.51.98,2.53.98Z"/>
    <path class="cls-2" d="M123.57,37.98v-10.02h1.58v1.23h.29c.18-.44.45-.76.82-.96s.85-.31,1.46-.31h1.19v1.48h-1.29c-.72,0-1.31.2-1.75.61s-.67,1.03-.67,1.88v6.11h-1.62Z"/>
    <path class="cls-2" d="M133,38.27c-.7,0-1.33-.12-1.91-.37s-1.03-.6-1.35-1.07c-.33-.46-.49-1.03-.49-1.7s.16-1.25.49-1.69c.33-.44.78-.78,1.35-1s1.22-.34,1.93-.34h3.38v-.74c0-.71-.21-1.27-.62-1.68-.42-.41-1.04-.62-1.86-.62s-1.44.2-1.89.58c-.45.39-.76.91-.92,1.57l-1.52-.49c.16-.56.42-1.07.78-1.53s.83-.83,1.42-1.11c.59-.28,1.31-.42,2.14-.42,1.28,0,2.28.33,2.99.99.71.66,1.07,1.6,1.07,2.8v4.53c0,.41.19.62.57.62h.92v1.37h-1.42c-.45,0-.81-.13-1.09-.38-.27-.25-.41-.59-.41-1.01v-.1h-.25c-.15.26-.35.53-.6.81-.25.28-.6.51-1.04.7-.44.18-1,.28-1.7.28ZM133.19,36.88c.96,0,1.73-.28,2.33-.85.59-.57.89-1.36.89-2.39v-.23h-3.32c-.64,0-1.17.14-1.59.42s-.62.7-.62,1.26.21,1,.65,1.31.99.47,1.67.47Z"/>
    <path class="cls-2" d="M143.72,37.98c-.57,0-1.01-.16-1.32-.47s-.46-.74-.46-1.29v-6.85h-3.01v-1.41h3.01v-3.57h1.62v3.57h3.28v1.41h-3.28v6.6c0,.41.2.62.59.62h2.23v1.39h-2.67Z"/>
    <path class="cls-2" d="M149.26,26.4c-.36,0-.65-.12-.89-.35s-.36-.53-.36-.88.12-.67.36-.9c.24-.23.54-.35.89-.35s.65.12.88.35c.23.23.35.53.35.9s-.12.65-.35.88c-.23.23-.53.35-.88.35ZM148.44,37.98v-10.02h1.62v10.02h-1.62Z"/>
    <path class="cls-2" d="M157.07,38.27c-1.01,0-1.9-.21-2.68-.64-.77-.42-1.37-1.02-1.8-1.79-.43-.77-.65-1.68-.65-2.74v-.27c0-1.04.21-1.95.65-2.73s1.03-1.38,1.8-1.8,1.66-.64,2.68-.64,1.9.21,2.67.64c.77.42,1.37,1.02,1.8,1.8s.65,1.69.65,2.73v.27c0,1.05-.22,1.96-.65,2.74-.43.77-1.03,1.37-1.8,1.79-.77.42-1.66.64-2.67.64ZM157.07,36.81c1.07,0,1.92-.34,2.55-1.01.64-.68.95-1.59.95-2.74v-.18c0-1.15-.32-2.06-.95-2.74-.64-.68-1.49-1.02-2.55-1.02s-1.9.34-2.54,1.02c-.64.68-.96,1.59-.96,2.74v.18c0,1.15.32,2.06.96,2.74.64.68,1.49,1.01,2.54,1.01Z"/>
    <path class="cls-2" d="M164.08,37.98v-10.02h1.58v1.7h.29c.22-.48.59-.91,1.12-1.3.53-.39,1.3-.58,2.33-.58.75,0,1.42.16,2.02.47s1.07.78,1.42,1.39.53,1.37.53,2.28v6.07h-1.62v-5.95c0-1-.25-1.72-.75-2.17s-1.17-.68-2.02-.68c-.97,0-1.76.32-2.37.94-.61.63-.91,1.57-.91,2.81v5.04h-1.62Z"/>
    <path class="cls-2" d="M179.66,38.27c-1.24,0-2.29-.29-3.15-.86-.85-.57-1.37-1.48-1.55-2.73l1.54-.35c.11.66.31,1.17.62,1.55.3.38.67.64,1.12.8.44.16.92.24,1.42.24.75,0,1.35-.15,1.78-.45s.66-.7.66-1.21-.21-.88-.62-1.1c-.42-.21-.99-.39-1.71-.52l-.84-.14c-.64-.11-1.23-.28-1.76-.51s-.96-.55-1.27-.94c-.31-.4-.47-.89-.47-1.5,0-.9.35-1.61,1.05-2.11s1.62-.76,2.77-.76,2.05.26,2.76.77,1.16,1.23,1.36,2.16l-1.52.39c-.12-.72-.42-1.23-.88-1.53s-1.04-.44-1.72-.44-1.22.13-1.62.38c-.4.25-.59.62-.59,1.12s.19.83.56,1.06.88.39,1.51.5l.84.14c.71.12,1.35.29,1.92.5.57.21,1.02.52,1.35.91s.5.92.5,1.56c0,.98-.37,1.74-1.1,2.28s-1.71.8-2.94.8Z"/>
  </g>
  <g>
    <path class="cls-1" d="M69.19,28.29l-14.34-18.59-5.39,6.98,3.18,4.13,2.21-2.87,10.36,13.43c.69.89.61,2.15-.19,2.94-.39.39-.91.62-1.46.64-.08.02-.17.02-.25.01-.65-.04-1.22-.34-1.62-.85L35.34,0l-12.87,16.68,3.18,4.12,9.69-12.55,22.35,28.94c1.28,1.65,3.2,2.68,5.29,2.81,2.08.14,4.11-.64,5.6-2.12,2.58-2.57,2.84-6.69.61-9.58Z"/>
    <path class="cls-1" d="M7.72,39.99c2.09-.13,4.01-1.16,5.29-2.81l8.24-10.68-3.18-4.12-9.05,11.73c-.39.51-.97.81-1.63.85-.65.04-1.25-.19-1.71-.65-.8-.79-.88-2.05-.19-2.94l10.36-13.43,15.11,19.54s.06.07.09.11c1.05,1.3,2.62,2.05,4.28,2.05s3.32-.79,4.37-2.15l8.51-11-3.18-4.12-8.93,11.54-.37.48c-.13.17-.28.2-.4.2-.11,0-.26-.03-.38-.2l-.38-.47L15.85,9.7,1.51,28.29c-2.22,2.88-1.96,7,.62,9.58,1.37,1.37,3.21,2.14,5.13,2.14.15,0,.31-.01.46-.02Z"/>
  </g>
</svg>