<?xml version="1.0" encoding="UTF-8"?>
<svg id="Lager_1" data-name="Lager 1" xmlns="http://www.w3.org/2000/svg" version="1.1" viewBox="0 0 70 78.09">
  <defs>
    <style>
      .cls-1 {
        fill: #fff;
        stroke-width: 0px;
      }
    </style>
  </defs>
  <g>
    <path class="cls-1" d="M68.5,28.01l-14.2-18.41-5.34,6.91,3.15,4.09,2.19-2.84,10.26,13.3c.68.88.6,2.13-.19,2.91-.39.39-.9.61-1.45.63-.08.02-.17.02-.25.01-.64-.04-1.21-.34-1.6-.84L34.99,0l-12.74,16.51,3.15,4.08,9.59-12.43,22.13,28.65c1.27,1.63,3.17,2.65,5.24,2.78,2.06.14,4.07-.63,5.54-2.1,2.55-2.54,2.81-6.62.6-9.48Z"/>
    <path class="cls-1" d="M7.64,39.59c2.07-.13,3.97-1.15,5.24-2.78l8.16-10.57-3.15-4.08-8.96,11.61c-.39.5-.96.8-1.61.84-.64.04-1.24-.19-1.69-.64-.79-.78-.87-2.03-.19-2.91l10.26-13.3,14.96,19.35s.06.07.09.11c1.04,1.29,2.59,2.03,4.24,2.03s3.29-.78,4.33-2.13l8.43-10.89-3.15-4.08-8.84,11.43-.37.48c-.13.17-.28.2-.4.2-.11,0-.26-.03-.38-.2l-.38-.47L15.69,9.6,1.49,28.01c-2.2,2.85-1.94,6.93.61,9.48,1.36,1.36,3.18,2.12,5.08,2.12.15,0,.31-.01.46-.02Z"/>
  </g>
  <g>
    <polygon class="cls-1" points="16.53 44.8 2.5 44.8 2.5 47.64 7.95 47.64 7.95 63.05 11.08 63.05 11.08 47.64 16.53 47.64 16.53 44.8"/>
    <polygon class="cls-1" points="29.12 61.04 28.68 61.04 26.72 50.17 21.92 50.17 19.97 61.04 19.52 61.04 18.14 50.17 15.17 50.17 17.18 63.05 22.16 63.05 24.11 52.17 24.56 52.17 26.48 63.05 31.47 63.05 33.47 50.17 30.5 50.17 29.12 61.04"/>
    <path class="cls-1" d="M38.1,45.15c-.37-.36-.85-.54-1.42-.54-.54,0-1,.18-1.39.54-.4.35-.59.83-.59,1.42s.19,1.06.59,1.42c.39.36.85.53,1.39.53.57,0,1.05-.17,1.42-.53.37-.36.56-.83.56-1.42s-.19-1.07-.56-1.42Z"/>
    <rect class="cls-1" x="35.19" y="50.17" width="3" height="12.88"/>
    <path class="cls-1" d="M53.05,63.05v-7.72c0-1.1-.21-2.04-.64-2.84-.42-.8-1.02-1.43-1.78-1.88-.77-.45-1.64-.68-2.63-.68-1.2,0-2.1.22-2.69.65-.59.44-1,.9-1.23,1.39h-.44v-1.8h-2.95v12.88h3v-6.52c0-1.31.31-2.31.92-3.01.6-.71,1.44-1.06,2.5-1.06.94,0,1.66.26,2.18.77.51.51.76,1.29.76,2.33v7.49h3Z"/>
    <path class="cls-1" d="M64.53,50.62c-.94-.54-2.04-.82-3.29-.82s-2.39.28-3.36.82c-.98.55-1.73,1.32-2.27,2.31-.54.99-.81,2.16-.81,3.52v.31c0,1.34.27,2.51.82,3.51s1.31,1.77,2.3,2.32c.98.55,2.11.82,3.4.82,1.16,0,2.13-.19,2.89-.56.77-.37,1.38-.82,1.84-1.35.46-.53.81-1.04,1.06-1.5l-2.48-1.28c-.24.54-.6,1.02-1.07,1.45-.47.42-1.19.63-2.16.63s-1.83-.3-2.51-.91c-.67-.61-1.03-1.42-1.06-2.42h9.67v-1.07c0-1.32-.26-2.48-.78-3.47-.53-.99-1.26-1.76-2.19-2.31ZM57.85,55.2c.14-.85.5-1.53,1.07-2.03.57-.51,1.34-.76,2.29-.76s1.68.25,2.26.76c.58.5.91,1.18.98,2.03h-6.6Z"/>
    <rect class="cls-1" x="2.5" y="66.85" width="1.05" height="8.74"/>
    <path class="cls-1" d="M9.42,69.66c-.36-.19-.77-.29-1.23-.29-.62,0-1.09.12-1.41.36-.33.24-.55.5-.68.79h-.18v-1.04h-.96v6.11h.99v-3.07c0-.76.18-1.33.55-1.71.37-.38.85-.58,1.44-.58.52,0,.93.14,1.23.42.31.27.46.71.46,1.32v3.62h.99v-3.69c0-.55-.11-1.02-.33-1.39-.22-.38-.5-.66-.87-.85Z"/>
    <path class="cls-1" d="M13.96,67.31h-.98v2.17h-1.84v.87h1.84v4.17c0,.33.09.59.28.78.18.2.45.29.8.29h1.63v-.85h-1.37c-.24,0-.36-.12-.36-.37v-4.02h2v-.87h-2v-2.17Z"/>
    <path class="cls-1" d="M20.97,69.68c-.44-.25-.95-.37-1.52-.37-.6,0-1.12.13-1.58.39-.46.27-.81.63-1.07,1.11-.26.47-.39,1.03-.39,1.66v.15c0,.62.13,1.17.39,1.65.26.47.62.84,1.08,1.1.47.27,1.01.4,1.63.4.55,0,1-.09,1.35-.27.36-.17.64-.39.86-.65.22-.25.4-.51.52-.77l-.85-.41c-.15.33-.36.62-.65.86-.28.24-.68.36-1.21.36-.6,0-1.1-.18-1.5-.55-.4-.37-.61-.89-.63-1.55h4.98v-.45c0-.61-.12-1.15-.37-1.61-.25-.45-.6-.81-1.04-1.05ZM17.41,71.98c.08-.56.3-1,.66-1.32s.82-.48,1.38-.48,1,.16,1.35.48c.35.32.55.76.58,1.32h-3.97Z"/>
    <path class="cls-1" d="M28.49,70.5h-.18c-.17-.3-.42-.58-.77-.82-.34-.25-.84-.37-1.48-.37-.52,0-1,.13-1.45.38-.44.25-.79.6-1.04,1.06-.26.45-.39,1-.39,1.64v.18c0,.63.13,1.18.39,1.64.25.46.6.82,1.04,1.07.45.25.93.37,1.45.37.44,0,.8-.05,1.09-.16.29-.12.53-.26.71-.43.18-.18.33-.36.43-.54h.17v2.32c0,.25-.12.37-.37.37h-3.89v.88h4.15c.35,0,.61-.1.8-.29.18-.19.27-.45.27-.78v-7.54h-.93v1.02ZM28.46,72.53c0,.7-.2,1.25-.59,1.65-.4.4-.91.6-1.54.6s-1.14-.2-1.55-.6c-.4-.4-.6-.95-.6-1.65v-.1c0-.71.2-1.26.6-1.65.41-.4.92-.6,1.55-.6s1.14.2,1.54.6.59.94.59,1.65v.1Z"/>
    <path class="cls-1" d="M32.51,69.65c-.23.12-.39.32-.5.58h-.18v-.75h-.96v6.11h.99v-3.72c0-.52.13-.9.4-1.14.27-.25.63-.37,1.07-.37h.79v-.9h-.73c-.36,0-.66.06-.88.19Z"/>
    <path class="cls-1" d="M39.66,74.38v-2.76c0-.73-.21-1.3-.65-1.7-.43-.41-1.04-.61-1.82-.61-.51,0-.94.09-1.3.26-.37.17-.66.39-.87.67-.22.28-.38.59-.48.93l.93.3c.1-.4.28-.72.56-.95.27-.24.66-.36,1.15-.36s.87.12,1.13.37c.25.25.38.6.38,1.03v.45h-2.06c-.43,0-.83.07-1.18.2-.34.14-.62.35-.82.62s-.3.61-.3,1.03.1.75.3,1.03c.2.29.48.5.82.65.35.15.74.23,1.17.23s.77-.06,1.03-.17c.27-.11.48-.26.63-.43.16-.17.28-.33.37-.49h.15v.06c0,.26.08.47.25.62.17.15.39.23.66.23h.86v-.83h-.56c-.23,0-.35-.13-.35-.38ZM38.69,72.94c0,.63-.18,1.11-.54,1.46-.37.35-.84.52-1.42.52-.42,0-.76-.1-1.02-.29-.26-.19-.39-.46-.39-.8s.12-.6.38-.77c.25-.17.57-.25.97-.25h2.02v.13Z"/>
    <path class="cls-1" d="M43.05,67.31h-.99v2.17h-1.83v.87h1.83v4.17c0,.33.1.59.28.78.19.2.46.29.81.29h1.62v-.85h-1.36c-.24,0-.36-.12-.36-.37v-4.02h2v-.87h-2v-2.17Z"/>
    <path class="cls-1" d="M46.52,67.02c-.22,0-.4.08-.54.22-.15.14-.22.32-.22.55,0,.21.07.39.22.53.14.15.32.22.54.22s.39-.07.54-.22c.14-.14.21-.32.21-.53,0-.23-.07-.41-.21-.55-.15-.14-.33-.22-.54-.22Z"/>
    <rect class="cls-1" x="46.02" y="69.48" width=".99" height="6.11"/>
    <path class="cls-1" d="M52.91,69.7c-.47-.26-1.02-.39-1.63-.39s-1.16.13-1.63.39c-.47.26-.84.62-1.1,1.1-.26.47-.39,1.02-.39,1.66v.16c0,.64.13,1.2.39,1.67.26.47.63.83,1.1,1.09.47.26,1.01.39,1.63.39s1.16-.13,1.63-.39c.47-.26.83-.62,1.1-1.09.26-.47.39-1.03.39-1.67v-.16c0-.64-.13-1.19-.39-1.66-.27-.48-.63-.84-1.1-1.1ZM53.41,72.59c0,.7-.19,1.26-.58,1.67-.38.41-.9.62-1.55.62s-1.16-.21-1.55-.62c-.39-.41-.59-.97-.59-1.67v-.11c0-.7.2-1.25.59-1.66.39-.42.91-.62,1.55-.62s1.17.2,1.55.62c.39.41.58.96.58,1.66v.11Z"/>
    <path class="cls-1" d="M60.01,69.66c-.36-.19-.77-.29-1.23-.29-.62,0-1.09.12-1.42.36-.32.24-.54.5-.68.79h-.17v-1.04h-.96v6.11h.98v-3.07c0-.76.19-1.33.56-1.71.37-.38.85-.58,1.44-.58.52,0,.93.14,1.23.42.31.27.46.71.46,1.32v3.62h.98v-3.69c0-.55-.1-1.02-.32-1.39-.22-.38-.51-.66-.87-.85Z"/>
    <path class="cls-1" d="M66.37,72.39c-.35-.13-.74-.23-1.17-.31l-.51-.08c-.38-.07-.69-.17-.92-.31-.23-.14-.34-.35-.34-.64s.12-.53.36-.68c.24-.16.57-.24.99-.24s.76.09,1.05.27c.28.18.46.49.53.93l.93-.23c-.13-.57-.41-1.01-.83-1.32-.43-.31-.99-.47-1.68-.47s-1.26.15-1.69.46c-.42.31-.64.74-.64,1.29,0,.37.1.67.29.91s.45.43.78.57c.32.15.68.25,1.07.32l.51.08c.44.09.79.19,1.04.32.26.13.38.35.38.67s-.13.56-.39.74c-.27.18-.63.27-1.09.27-.31,0-.6-.05-.87-.14-.27-.1-.5-.26-.68-.49-.18-.23-.31-.54-.37-.94l-.94.21c.11.76.42,1.31.94,1.66.52.35,1.16.53,1.92.53s1.35-.17,1.79-.49c.45-.33.67-.79.67-1.39,0-.39-.1-.7-.31-.95-.2-.24-.48-.42-.82-.55Z"/>
  </g>
</svg>