<?xml version="1.0" encoding="UTF-8"?>
<svg id="Lager_1" data-name="Lager 1" xmlns="http://www.w3.org/2000/svg" version="1.1" viewBox="0 0 70 63.41">
  <defs>
    <style>
      .cls-1 {
        fill: #000;
        stroke-width: 0px;
      }
    </style>
  </defs>
  <g>
    <path class="cls-1" d="M7.96,63.05v-15.41H2.51v-2.84h14.03v2.84h-5.45v15.41h-3.13Z"/>
    <path class="cls-1" d="M17.19,63.05l-2.01-12.88h2.97l1.38,10.87h.44l1.96-10.87h4.8l1.96,10.87h.44l1.38-10.87h2.97l-2.01,12.88h-4.98l-1.93-10.87h-.44l-1.96,10.87h-4.98Z"/>
    <path class="cls-1" d="M36.69,48.52c-.54,0-1-.18-1.39-.54-.39-.36-.59-.83-.59-1.42s.2-1.06.59-1.42.86-.54,1.39-.54c.57,0,1.05.18,1.42.54.37.36.56.83.56,1.42s-.19,1.07-.56,1.42c-.37.36-.85.54-1.42.54ZM35.21,63.05v-12.88h3v12.88h-3Z"/>
    <path class="cls-1" d="M40.71,63.05v-12.88h2.95v1.8h.44c.23-.49.63-.95,1.23-1.38.59-.43,1.49-.65,2.69-.65.99,0,1.87.23,2.63.68s1.36,1.08,1.79,1.88c.43.8.64,1.75.64,2.84v7.72h-3v-7.48c0-1.04-.26-1.82-.77-2.33s-1.24-.77-2.18-.77c-1.06,0-1.9.35-2.5,1.06-.61.7-.91,1.71-.91,3.01v6.52h-3Z"/>
    <path class="cls-1" d="M61.33,63.41c-1.29,0-2.42-.27-3.4-.82-.98-.55-1.75-1.32-2.29-2.32s-.82-2.17-.82-3.51v-.31c0-1.36.27-2.53.81-3.52.54-.99,1.29-1.76,2.27-2.31.97-.55,2.09-.82,3.36-.82s2.35.27,3.28.82c.94.55,1.67,1.32,2.19,2.31.52.99.78,2.15.78,3.47v1.07h-9.67c.03,1.01.39,1.82,1.07,2.42.68.61,1.51.91,2.5.91s1.7-.21,2.16-.64.83-.91,1.07-1.45l2.48,1.28c-.24.47-.6.97-1.06,1.5-.46.53-1.07.98-1.84,1.36-.76.37-1.73.56-2.89.56ZM57.86,55.2h6.6c-.07-.85-.4-1.53-.98-2.03-.58-.5-1.33-.76-2.26-.76s-1.72.25-2.29.76c-.57.5-.93,1.18-1.07,2.03Z"/>
  </g>
  <g>
    <path class="cls-1" d="M68.5,28.01l-14.2-18.41-5.34,6.91,3.15,4.09,2.19-2.84,10.26,13.3c.68.88.6,2.13-.19,2.91-.39.39-.9.61-1.45.63-.08.02-.17.02-.25.01-.64-.04-1.21-.34-1.6-.84L34.99,0l-12.74,16.51,3.15,4.08,9.59-12.43,22.13,28.65c1.27,1.63,3.17,2.65,5.24,2.78,2.06.14,4.07-.63,5.54-2.1,2.55-2.54,2.81-6.62.6-9.48Z"/>
    <path class="cls-1" d="M7.64,39.59c2.07-.13,3.97-1.15,5.24-2.78l8.16-10.57-3.15-4.08-8.96,11.61c-.39.5-.96.8-1.61.84-.64.04-1.24-.19-1.69-.64-.79-.78-.87-2.03-.19-2.91l10.26-13.3,14.96,19.35s.06.07.09.11c1.04,1.29,2.59,2.03,4.24,2.03s3.29-.78,4.33-2.13l8.43-10.89-3.15-4.08-8.84,11.43-.37.48c-.13.17-.28.2-.4.2-.11,0-.26-.03-.38-.2l-.38-.47L15.69,9.6,1.49,28.01c-2.2,2.85-1.94,6.93.61,9.48,1.36,1.36,3.18,2.12,5.08,2.12.15,0,.31-.01.46-.02Z"/>
  </g>
</svg>