<?xml version="1.0" encoding="UTF-8"?>
<svg id="Lager_1" data-name="Lager 1" xmlns="http://www.w3.org/2000/svg" version="1.1" viewBox="0 0 70 39.61">
  <defs>
    <style>
      .cls-1 {
        fill: #fff;
        stroke-width: 0px;
      }
    </style>
  </defs>
  <path class="cls-1" d="M68.5,28.01l-14.2-18.41-5.34,6.91,3.15,4.09,2.19-2.84,10.26,13.3c.68.88.6,2.13-.19,2.91-.39.39-.9.61-1.45.63-.08.02-.17.02-.25.01-.64-.04-1.21-.34-1.6-.84L34.99,0l-12.74,16.51,3.15,4.08,9.59-12.43,22.13,28.65c1.27,1.63,3.17,2.65,5.24,2.78,2.06.14,4.07-.63,5.54-2.1,2.55-2.54,2.81-6.62.6-9.48Z"/>
  <path class="cls-1" d="M7.64,39.59c2.07-.13,3.97-1.15,5.24-2.78l8.16-10.57-3.15-4.08-8.96,11.61c-.39.5-.96.8-1.61.84-.64.04-1.24-.19-1.69-.64-.79-.78-.87-2.03-.19-2.91l10.26-13.3,14.96,19.35s.06.07.09.11c1.04,1.29,2.59,2.03,4.24,2.03s3.29-.78,4.33-2.13l8.43-10.89-3.15-4.08-8.84,11.43-.37.48c-.13.17-.28.2-.4.2-.11,0-.26-.03-.38-.2l-.38-.47L15.69,9.6,1.49,28.01c-2.2,2.85-1.94,6.93.61,9.48,1.36,1.36,3.18,2.12,5.08,2.12.15,0,.31-.01.46-.02Z"/>
</svg>